<?xml version="1.0" standalone="no"?>
<!DOCTYPE svg PUBLIC "-//W3C//DTD SVG 20010904//EN"
 "http://www.w3.org/TR/2001/REC-SVG-20010904/DTD/svg10.dtd">
<svg version="1.0" xmlns="http://www.w3.org/2000/svg"
 width="194pt" height="193.5pt" viewBox="0 0 388.000000 387.000000"
 preserveAspectRatio="xMidYMid meet">

<g transform="translate(0.000000,387.000000) scale(0.100000,-0.100000)"
fill="#1b1c25" stroke="none">
<path d="M1723 3830 c-354 -45 -723 -202 -983 -419 -383 -318 -615 -732 -686
-1221 -24 -169 -15 -461 20 -625 59 -282 180 -546 351 -773 385 -511 1024
-802 1652 -752 855 68 1550 682 1729 1525 35 164 44 456 20 625 -71 489 -303
903 -686 1221 -225 188 -562 344 -860 399 -130 25 -435 35 -557 20z m225
-1197 l112 -73 0 -150 0 -150 72 45 c40 25 76 45 81 45 5 0 62 -35 128 -77
l118 -78 -120 -77 c-65 -43 -123 -78 -127 -78 -4 0 -38 20 -77 44 l-70 45 -3
-185 -2 -184 -50 0 -50 0 0 365 0 365 -70 -45 c-39 -25 -72 -45 -75 -45 -3 0
-59 35 -125 78 l-121 78 122 82 c68 44 127 78 133 74 6 -3 62 -39 124 -79z
m-498 -733 c118 -27 150 -30 296 -30 l164 0 0 -100 c0 -84 3 -100 16 -100 8 0
184 38 391 85 207 47 377 84 378 83 2 -2 26 -49 54 -105 l51 -103 -470 -235
-470 -235 -390 0 -390 0 0 339 0 339 113 45 c61 26 115 46 118 47 4 0 66 -13
139 -30z" />
<path d="M1721 2614 l-83 -56 88 -58 c48 -33 92 -56 98 -52 23 13 161 104 164
107 5 5 -161 115 -173 115 -6 0 -48 -25 -94 -56z"  />
<path d="M2000 2175 c0 -327 2 -375 15 -375 13 0 15 28 15 195 0 107 2 195 5
195 3 0 44 -25 92 -55 48 -31 91 -51 98 -47 6 4 46 29 89 57 88 56 91 45 -31
121 l-72 46 -86 -56 c-47 -31 -88 -56 -90 -56 -3 0 -5 76 -5 169 0 141 -2 170
-15 175 -13 5 -15 -40 -15 -369z" />
<path d="M1213 1852 l-93 -37 0 -307 0 -308 370 0 370 0 443 221 c243 122 443
222 445 224 2 1 -14 37 -35 79 -26 54 -42 75 -53 72 -8 -3 -180 -42 -382 -87
-354 -80 -368 -84 -368 -106 l0 -23 -235 0 c-228 0 -235 1 -235 20 0 19 7 20
215 20 l215 0 0 105 0 105 -139 0 c-118 0 -158 4 -271 30 -73 17 -137 30 -144
29 -6 0 -53 -17 -103 -37z"/>
</g>
</svg>
